<svg width="174" height="37" viewBox="0 0 174 37" fill="none" xmlns="http://www.w3.org/2000/svg">
<g clip-path="url(#clip0)">
<path d="M117.006 12.3438C117.798 9.37923 120.457 7.08706 123.754 7.08706C127.351 7.08706 129.765 9.30969 130.568 12.3438H117.006ZM123.734 -0.0117371C115.682 -0.0117371 108.052 6.47102 108.052 15.4701C108.052 24.4692 114.851 30.9529 124.233 30.9529C130.568 30.9529 135.581 28.2053 137.947 25.4503L132.093 20.7283C130.224 22.3725 128.022 23.5167 124.462 23.5167C120.965 23.5167 117.791 21.7113 116.897 18.1029H139.198C139.332 17.251 139.419 16.3779 139.419 15.4701C139.419 6.73745 133.117 -0.0117371 123.734 -0.0117371ZM92.9289 27.2933C97.1487 22.7211 103.214 13.4443 103.214 6.86432C103.214 2.38335 101.195 0.698753 96.9492 0.676198C95.3364 0.66727 93.7584 0.827506 92.0864 1.0258C93.1829 2.20808 93.8931 3.51957 93.8931 6.36858C93.8931 13.1173 90.2964 20.3228 87.4738 23.9288C82.493 6.53586 81.609 0.675728 70.86 0.675728C69.5304 0.675728 68.4441 0.755611 66.9781 0.95297C73.2641 5.85498 76.3589 15.1426 81.7959 30.4153H86.4383C82.5615 32.5815 78.7859 34.8338 75.3742 34.8338C76.8189 36.3868 78.5016 37.0132 80.3484 37.0132C87.3428 37.0132 96.3103 28.8162 103.941 29.5253C101.748 27.3887 99.5566 26.4738 97.268 26.4738C95.8369 26.4738 94.3857 26.7891 92.9289 27.2933ZM21.1214 17.5832L8.43237 1.02627H-0.0299683V29.913H8.21008V13.2728L21.0641 29.913H29.361V1.02627H21.1214V17.5832ZM173.103 1.02627H163.539L158.124 8.69976L152.687 1.02627H143.004L153.001 14.8752L142.048 29.913H151.619L158.012 21.0995L164.348 29.913H174.031L163.134 14.8197L173.103 1.02627ZM51.5484 23.5171C47.2694 23.5171 43.8004 19.9144 43.8004 15.4691C43.8004 11.0248 47.2694 7.4221 51.5484 7.4221C55.8273 7.4221 59.2963 11.0248 59.2963 15.4691C59.2963 19.9144 55.8273 23.5171 51.5484 23.5171ZM51.4859 -0.012207C42.1037 -0.012207 35.3041 6.47102 35.3041 15.4701C35.3041 24.4696 42.1037 30.9529 51.4859 30.9529C60.8682 30.9529 67.6682 24.4696 67.6682 15.4701C67.6682 6.47102 60.8682 -0.012207 51.4859 -0.012207Z" fill="#FEFEFE"/>
</g>
<defs>
<clipPath id="clip0">
<rect width="174" height="37" fill="white"/>
</clipPath>
</defs>
</svg>
