<svg width="33" height="33" viewBox="0 0 33 33" fill="none" xmlns="http://www.w3.org/2000/svg">
<g clip-path="url(#clip0)">
<rect x="0.537109" y="0.0222168" width="32" height="32" rx="10" fill="white"/>
<path d="M16.5371 2.90509C20.8093 2.90509 21.3153 2.92142 23.0025 2.99839C24.5625 3.06953 25.4097 3.33018 25.9735 3.5493C26.7203 3.83955 27.2533 4.18626 27.8132 4.74618C28.3731 5.30604 28.7198 5.83904 29.0101 6.58588C29.2291 7.14967 29.4898 7.99686 29.561 9.55684C29.638 11.244 29.6542 11.75 29.6542 16.0222C29.6542 20.2944 29.638 20.8005 29.561 22.4876C29.4898 24.0476 29.2291 24.8948 29.0101 25.4586C28.7198 26.2054 28.3731 26.7384 27.8132 27.2983C27.2533 27.8582 26.7203 28.2049 25.9735 28.4951C25.4097 28.7143 24.5625 28.9749 23.0025 29.046C21.3156 29.123 20.8096 29.1393 16.5371 29.1393C12.2647 29.1393 11.7587 29.123 10.0718 29.046C8.51182 28.9749 7.66456 28.7143 7.10077 28.4951C6.35399 28.2049 5.821 27.8582 5.26108 27.2983C4.70122 26.7384 4.35444 26.2054 4.06419 25.4586C3.84514 24.8948 3.58448 24.0476 3.51329 22.4876C3.43631 20.8005 3.42005 20.2944 3.42005 16.0222C3.42005 11.75 3.43631 11.244 3.51329 9.55684C3.58448 7.99686 3.84514 7.14967 4.06419 6.58588C4.35444 5.83904 4.70122 5.30604 5.26108 4.74618C5.821 4.18626 6.35399 3.83955 7.10077 3.5493C7.66456 3.33018 8.51182 3.06953 10.0717 2.99839C11.7589 2.92142 12.2649 2.90509 16.5371 2.90509ZM16.5371 0.0222168C12.1918 0.0222168 11.6469 0.0406353 9.94039 0.118501C8.23732 0.196176 7.07428 0.466675 6.0565 0.862164C5.00436 1.27106 4.11208 1.81815 3.22259 2.70764C2.33304 3.59719 1.78595 4.48947 1.37706 5.54161C0.981504 6.55933 0.711133 7.72242 0.633394 9.42544C0.555528 11.132 0.537109 11.6769 0.537109 16.0222C0.537109 20.3676 0.555528 20.9124 0.633394 22.619C0.711133 24.322 0.981567 25.4851 1.37712 26.5028C1.78601 27.555 2.3331 28.4472 3.22259 29.3368C4.11208 30.2263 5.00436 30.7734 6.0565 31.1823C7.07428 31.5778 8.23732 31.8483 9.94039 31.9259C11.6469 32.0038 12.1918 32.0222 16.5371 32.0222C20.8825 32.0222 21.4274 32.0038 23.1339 31.9259C24.837 31.8483 26 31.5778 27.0178 31.1823C28.0699 30.7734 28.9622 30.2263 29.8517 29.3368C30.7412 28.4472 31.2883 27.555 31.6972 26.5028C32.0927 25.4851 32.3631 24.322 32.4409 22.619C32.5188 20.9124 32.5372 20.3676 32.5372 16.0222C32.5372 11.6769 32.5188 11.132 32.4409 9.42544C32.3631 7.72242 32.0927 6.55933 31.6972 5.54161C31.2883 4.48947 30.7412 3.59719 29.8517 2.70764C28.9622 1.81815 28.0699 1.27106 27.0178 0.862164C26 0.466675 24.837 0.196176 23.1339 0.118501C21.4273 0.0406353 20.8825 0.0222168 16.5371 0.0222168Z" fill="#CA4D6C"/>
<path d="M16.5372 7.80609C11.9995 7.80609 8.32092 11.4846 8.32092 16.0223C8.32092 20.56 11.9995 24.2385 16.5372 24.2385C21.0748 24.2385 24.7534 20.56 24.7534 16.0223C24.7533 11.4846 21.0748 7.80609 16.5372 7.80609ZM16.5372 21.3556C13.5917 21.3556 11.2038 18.9678 11.2038 16.0223C11.2038 13.0768 13.5917 10.689 16.5372 10.689C19.4827 10.689 21.8705 13.0768 21.8705 16.0223C21.8704 18.9678 19.4826 21.3556 16.5372 21.3556Z" fill="#CA4D6C"/>
<path d="M26.998 7.48137C26.998 8.54177 26.1383 9.40134 25.078 9.40134C24.0176 9.40134 23.158 8.54177 23.158 7.48137C23.158 6.42097 24.0176 5.5614 25.078 5.5614C26.1383 5.5614 26.998 6.42097 26.998 7.48137Z" fill="#CA4D6C"/>
</g>
<defs>
<clipPath id="clip0">
<rect width="32" height="32" fill="white" transform="translate(0.537109 0.0222168)"/>
</clipPath>
</defs>
</svg>
