<svg width="33" height="33" viewBox="0 0 33 33" fill="none" xmlns="http://www.w3.org/2000/svg">
<rect x="2.03711" y="1.52222" width="29" height="29" rx="8.5" fill="white" stroke="#CA4D6C" stroke-width="3"/>
<path d="M20.5801 19.0144C21.2129 18.5925 21.5996 18.2761 21.7754 18.03C21.9863 17.7488 21.9863 17.3621 21.8105 16.9402C21.6348 16.6589 21.3887 16.448 21.1074 16.3777C20.6855 16.3074 20.2988 16.4128 19.877 16.7292L19.4551 17.0105C19.1035 17.2214 18.7168 17.3621 18.3301 17.5027C17.7324 17.6785 17.1348 17.7488 16.5371 17.7488C15.9043 17.7488 15.3066 17.6785 14.7441 17.5027C14.3223 17.3621 13.9707 17.2214 13.6191 17.0105L13.1973 16.7292C12.7754 16.4128 12.3535 16.3074 12.002 16.3777C11.6504 16.448 11.4395 16.6589 11.2988 16.9402C11.0879 17.3621 11.0879 17.7488 11.2988 18.03C11.4395 18.2761 11.8613 18.5925 12.4941 19.0144C13.2324 19.5066 14.2871 19.823 15.6934 19.9636L12.2832 23.3738C11.9316 23.6902 11.8613 24.0417 12.002 24.4285C12.1426 24.8152 12.3887 25.0613 12.8105 25.2019C13.1973 25.3425 13.5488 25.2722 13.8652 24.9558L16.5371 22.2839L19.2441 24.991C19.5254 25.3074 19.877 25.3777 20.2637 25.2371C20.6504 25.0964 20.9316 24.8152 21.0723 24.4285C21.2129 24.0417 21.1074 23.6902 20.8262 23.3738L17.416 19.9636C18.752 19.823 19.8066 19.5066 20.5801 19.0144ZM11.9668 11.8425C11.9668 12.6863 12.1426 13.4246 12.5645 14.1277C12.9863 14.8308 13.5488 15.3582 14.252 15.78C14.9551 16.2019 15.6934 16.3777 16.5371 16.3777C17.3457 16.3777 18.1191 16.2019 18.8223 15.78C19.5254 15.3582 20.0527 14.8308 20.4746 14.1277C20.8965 13.4246 21.1074 12.6863 21.1074 11.8425C21.1074 10.9988 20.8965 10.2605 20.4746 9.55737C20.0527 8.85425 19.5254 8.3269 18.8223 7.90503C18.1191 7.48315 17.3457 7.27222 16.5371 7.27222C15.6934 7.27222 14.9551 7.48315 14.252 7.90503C13.5488 8.3269 12.9863 8.85425 12.5645 9.55737C12.1426 10.2605 11.9668 10.9988 11.9668 11.8425ZM14.2871 11.8425C14.2871 11.2097 14.498 10.6824 14.9551 10.2605C15.377 9.83862 15.9043 9.59253 16.5371 9.59253C17.1348 9.59253 17.6621 9.83862 18.1191 10.2605C18.541 10.6824 18.7871 11.2097 18.7871 11.8425C18.7871 12.4753 18.541 13.0027 18.1191 13.4246C17.6621 13.8464 17.1348 14.0574 16.5371 14.0574C15.9043 14.0574 15.377 13.8464 14.9551 13.4246C14.498 13.0027 14.2871 12.4753 14.2871 11.8425Z" fill="#CA4D6C"/>
</svg>
