<svg width="33" height="33" viewBox="0 0 33 33" fill="none" xmlns="http://www.w3.org/2000/svg">
<rect x="2.03711" y="1.52222" width="29" height="29" rx="8.5" fill="white" stroke="#CA4D6C" stroke-width="3"/>
<path d="M24.1579 12.7097C24.0947 13.0222 23.8419 13.5535 23.3996 14.2722C23.0836 14.8035 22.7044 15.3972 22.262 16.0847C21.8828 16.6472 21.6616 16.9285 21.6616 16.9285C21.5353 17.116 21.4721 17.2722 21.4721 17.366C21.4721 17.491 21.5353 17.616 21.6616 17.741L21.946 18.0535C23.4628 19.616 24.3159 20.6785 24.5055 21.241C24.5687 21.491 24.5371 21.7097 24.4107 21.8347C24.2843 21.9597 24.1263 22.0222 23.8735 22.0222H22.0092C21.7564 22.0222 21.5668 21.9597 21.3773 21.8035C21.2509 21.741 20.9981 21.5222 20.6821 21.1472C20.3661 20.7722 20.0817 20.4597 19.8289 20.2097C18.9758 19.4285 18.3438 19.0222 17.9646 19.0222C17.775 19.0222 17.6486 19.0535 17.5854 19.116C17.5222 19.1785 17.4906 19.3347 17.4906 19.5222C17.459 19.6785 17.459 19.991 17.459 20.491V21.3035C17.459 21.5535 17.3958 21.741 17.2695 21.8347C17.0799 21.9597 16.7007 22.0222 16.1319 22.0222C15.1208 22.0222 14.1412 21.741 13.13 21.1472C12.1189 20.5847 11.2341 19.741 10.4758 18.6472C9.74901 17.7097 9.14863 16.741 8.67466 15.741C8.29547 14.991 7.97949 14.3035 7.7583 13.6472C7.60031 13.1472 7.53711 12.7722 7.53711 12.5535C7.53711 12.2097 7.7267 12.0222 8.16908 12.0222H10.0334C10.2546 12.0222 10.4126 12.0847 10.539 12.1785C10.6654 12.3035 10.7602 12.491 10.855 12.741C11.1393 13.5847 11.4869 14.3972 11.9293 15.1785C12.3085 15.9285 12.6877 16.5222 13.0668 16.9597C13.446 17.4285 13.7304 17.6472 13.9516 17.6472C14.078 17.6472 14.1412 17.616 14.2044 17.5222C14.2676 17.4285 14.2992 17.241 14.2992 16.9597V14.241C14.2676 13.9285 14.2044 13.616 14.078 13.366C14.0148 13.241 13.8884 13.0847 13.762 12.8972C13.604 12.7097 13.5408 12.5847 13.5408 12.4597C13.5408 12.3347 13.5724 12.241 13.6672 12.1472C13.762 12.0847 13.8884 12.0222 14.0148 12.0222H16.9535C17.1431 12.0222 17.2695 12.0847 17.3326 12.1785C17.3958 12.3035 17.459 12.4597 17.459 12.7097V16.3347C17.459 16.5222 17.4906 16.6785 17.5538 16.741C17.617 16.8347 17.6802 16.866 17.775 16.866C17.8698 16.866 17.9962 16.8347 18.1226 16.7722C18.249 16.7097 18.407 16.5535 18.6282 16.3035C19.0074 15.866 19.4182 15.3347 19.8289 14.6785C20.0817 14.241 20.3661 13.741 20.6189 13.1785L20.9349 12.5535C21.0613 12.2097 21.3457 12.0222 21.7248 12.0222H23.5892C24.0947 12.0222 24.2843 12.2722 24.1579 12.7097Z" fill="#CA4D6C"/>
</svg>
